<?xml version="1.0" encoding="utf-8"?>
<!-- Generator: Adobe Illustrator 26.5.2, SVG Export Plug-In . SVG Version: 6.00 Build 0)  -->
<svg version="1.1" xmlns="http://www.w3.org/2000/svg" xmlns:xlink="http://www.w3.org/1999/xlink" x="0px" y="0px"
	 viewBox="0 0 453.6 216" style="enable-background:new 0 0 453.6 216;" xml:space="preserve">
<style type="text/css">
	.st0{display:none;}
	.st1{display:inline;fill:none;stroke:#000000;stroke-width:2;stroke-miterlimit:10;}
	.st2{display:inline;}
	.st3{fill:none;stroke:#FBC926;stroke-miterlimit:10;}
</style>
<g id="Layer_1" class="st0">
	<line class="st1" x1="61.6" y1="13.06" x2="87.89" y2="13.06"/>
	<line class="st1" x1="52.18" y1="32.62" x2="98.56" y2="32.62"/>
	<line class="st1" x1="80.6" y1="9.49" x2="95.18" y2="34.75"/>
	<line class="st1" x1="68.56" y1="9.49" x2="53.99" y2="34.75"/>
	<line class="st1" x1="74.75" y1="28.9" x2="74.75" y2="67.06"/>
	<line class="st1" x1="52.18" y1="62.02" x2="115.36" y2="62.02"/>
	<line class="st1" x1="108.11" y1="55" x2="108.11" y2="98.92"/>
	<line class="st1" x1="115.36" y1="91.9" x2="52.18" y2="91.9"/>
	<line class="st1" x1="80.81" y1="86.86" x2="107.19" y2="113.23"/>
	<line class="st1" x1="52.18" y1="76.96" x2="61.6" y2="76.96"/>
	<g class="st2">
		<path d="M31.22,113.23l-0.12-2.82v-5.86h1.84v8.68H31.22z M30.32,110.47c-2.71,0-4.6-1.27-4.6-4.09c0-1.01,0.23-1.97,0.64-2.88
			l1.71,0.43c-0.36,0.76-0.51,1.41-0.51,2.23c0,1.63,1.01,2.31,2.7,2.31h12.16v1.99H30.32z"/>
		<path d="M38.13,101.62H31.1v-2.01h6.72c1.96,0,2.89-0.57,2.89-2.05c0-1.03-0.52-1.78-1.87-2.76H31.1v-2.01h11.32v1.66l-1.89,0.16
			v0.08c1.28,0.96,2.17,2.08,2.17,3.58C42.7,100.58,41.07,101.62,38.13,101.62z"/>
		<path d="M31.1,88.21v-1.66l2.63-0.18v-0.05c-1.84-1.02-2.9-2.54-2.9-4.29c0-0.76,0.13-1.34,0.46-1.93l1.96,0.44
			c-0.25,0.67-0.36,1.04-0.36,1.8c0,1.41,0.83,2.77,3.11,3.86h6.43v2.01H31.1z"/>
		<path d="M31.1,77.11v-1.64l1.81-0.16v-0.08c-1.16-0.99-2.08-2.11-2.08-3.63c0-2.3,1.63-3.35,4.58-3.35h7.02v2.01H35.7
			c-1.98,0-2.89,0.58-2.89,2.04c0,1.07,0.61,1.79,1.8,2.81h7.81v2.01H31.1z"/>
		<path d="M32.94,60.61v4.41H31.1V58.6h11.32v2.01H32.94z M27.25,61.26c-0.98,0-1.65-0.63-1.65-1.5c0-0.86,0.67-1.5,1.65-1.5
			c0.99,0,1.64,0.63,1.64,1.5C28.89,60.63,28.24,61.26,27.25,61.26z"/>
		<path d="M37.95,50.68h-5v2.72h-1.72L31.1,50.6l-3.59-0.26v-1.67h3.59v-4.65h1.84v4.65h5.01c1.95,0,2.89-0.6,2.89-2.38
			c0-0.87-0.2-1.57-0.48-2.24l1.69-0.41c0.35,0.89,0.66,1.86,0.66,3.12C42.7,49.7,40.79,50.68,37.95,50.68z"/>
		<path d="M38.13,41.08H31.1v-2.01h6.72c1.96,0,2.89-0.57,2.89-2.05c0-1.03-0.52-1.78-1.87-2.76H31.1v-2.01h11.32v1.66l-1.89,0.16
			v0.08c1.28,0.96,2.17,2.08,2.17,3.58C42.7,40.04,41.07,41.08,38.13,41.08z"/>
		<path d="M31.1,27.68v-1.66l2.63-0.18v-0.05c-1.84-1.02-2.9-2.54-2.9-4.29c0-0.76,0.13-1.34,0.46-1.93l1.96,0.44
			c-0.25,0.67-0.36,1.04-0.36,1.8c0,1.41,0.83,2.77,3.11,3.86h6.43v2.01H31.1z"/>
		<path d="M36.74,17.04c-3.69,0-5.92-2.42-5.92-5.05c0-2.89,2.18-4.54,5.34-4.54c0.49,0,0.96,0.05,1.25,0.09v8.11h-1.69V8.79
			l0.56,0.43c-2.45,0-3.68,1.03-3.68,2.7c0,1.73,1.46,3.14,4.13,3.14c2.78,0,4.15-1.52,4.15-3.64c0-1.1-0.38-1.99-1-2.88l1.46-0.7
			c0.77,1.01,1.34,2.32,1.34,3.84C42.7,14.68,40.52,17.04,36.74,17.04z"/>
	</g>
</g>
<g id="Layer_2">
	<g>
		<path class="st3" d="M277.99,142.15"/>
	</g>
	<line class="st3" x1="193.52" y1="62.87" x2="157.28" y2="110.03"/>
	<line class="st3" x1="193.52" y1="69.49" x2="157.28" y2="116.66"/>
	<line class="st3" x1="180.91" y1="61.26" x2="215.68" y2="99.11"/>
	<line class="st3" x1="180.38" y1="66.1" x2="216.73" y2="105.67"/>
	<line class="st3" x1="162.2" y1="94.73" x2="162.2" y2="136.51"/>
	<line class="st3" x1="166.27" y1="88.33" x2="166.27" y2="138.29"/>
	<line class="st3" x1="157.28" y1="132.93" x2="213.79" y2="132.93"/>
	<line class="st3" x1="150.91" y1="128.81" x2="207.42" y2="128.81"/>
	<g>
		<path d="M192.47,112.72h-5.81v3.24h5.56v1.36h-5.56v5.54H185v-11.5h7.47V112.72z"/>
		<path d="M198.31,123.11c-0.73,0-1.37-0.09-1.92-0.27c-0.55-0.18-1.01-0.44-1.4-0.79c-0.44-0.4-0.74-0.88-0.92-1.44
			c-0.18-0.56-0.27-1.25-0.27-2.07v-7.18h1.66v7.18c0,0.53,0.04,0.98,0.11,1.34c0.07,0.36,0.22,0.69,0.43,0.98
			c0.22,0.31,0.53,0.54,0.91,0.7c0.38,0.16,0.85,0.24,1.4,0.24c0.52,0,0.98-0.08,1.38-0.24c0.4-0.16,0.72-0.39,0.94-0.7
			c0.21-0.29,0.35-0.62,0.42-0.97c0.08-0.36,0.11-0.79,0.11-1.31v-7.22h1.66v7.18c0,0.8-0.09,1.48-0.26,2.05
			c-0.18,0.57-0.48,1.06-0.93,1.45c-0.4,0.36-0.86,0.62-1.39,0.8S199.07,123.11,198.31,123.11z"/>
		<path d="M214.86,122.87h-2.15l-3.95-4.57h-1.89v4.57h-1.66v-11.5h3.22c0.72,0,1.31,0.04,1.8,0.11c0.48,0.07,0.94,0.24,1.38,0.5
			c0.44,0.26,0.78,0.59,1.03,1c0.25,0.41,0.38,0.91,0.38,1.51c0,0.84-0.23,1.55-0.7,2.12c-0.46,0.57-1.09,0.99-1.89,1.26
			L214.86,122.87z M211.28,114.6c0-0.33-0.06-0.63-0.19-0.89c-0.13-0.26-0.33-0.47-0.59-0.64c-0.23-0.14-0.51-0.25-0.82-0.31
			c-0.31-0.06-0.7-0.09-1.16-0.09h-1.64v4.34h1.46c0.47,0,0.9-0.04,1.28-0.12c0.38-0.08,0.7-0.24,0.97-0.48
			c0.24-0.22,0.42-0.47,0.53-0.77C211.22,115.35,211.28,115,211.28,114.6z"/>
		<path d="M224.78,122.87h-1.86l-5.51-9.92v9.92h-1.55v-11.5h2.35l5.02,9.11v-9.11h1.55V122.87z"/>
		<path d="M231.66,122.87h-4.84v-1.17h1.59v-9.15h-1.59v-1.17h4.84v1.17h-1.59v9.15h1.59V122.87z"/>
		<path d="M236.62,122.87v-10.14h-4.19v-1.36h10.04v1.36h-4.19v10.14H236.62z"/>
		<path d="M248.09,123.11c-0.73,0-1.37-0.09-1.92-0.27c-0.55-0.18-1.01-0.44-1.4-0.79c-0.44-0.4-0.74-0.88-0.92-1.44
			c-0.18-0.56-0.27-1.25-0.27-2.07v-7.18h1.66v7.18c0,0.53,0.04,0.98,0.11,1.34c0.07,0.36,0.22,0.69,0.43,0.98
			c0.22,0.31,0.53,0.54,0.91,0.7c0.38,0.16,0.85,0.24,1.4,0.24c0.52,0,0.98-0.08,1.38-0.24c0.4-0.16,0.71-0.39,0.94-0.7
			c0.21-0.29,0.35-0.62,0.42-0.97s0.11-0.79,0.11-1.31v-7.22h1.66v7.18c0,0.8-0.09,1.48-0.26,2.05c-0.18,0.57-0.48,1.06-0.93,1.45
			c-0.4,0.36-0.86,0.62-1.39,0.8S248.85,123.11,248.09,123.11z"/>
		<path d="M264.64,122.87h-2.15l-3.95-4.57h-1.89v4.57h-1.66v-11.5h3.22c0.71,0,1.31,0.04,1.8,0.11c0.48,0.07,0.94,0.24,1.38,0.5
			c0.44,0.26,0.78,0.59,1.03,1c0.25,0.41,0.38,0.91,0.38,1.51c0,0.84-0.23,1.55-0.7,2.12c-0.46,0.57-1.09,0.99-1.89,1.26
			L264.64,122.87z M261.06,114.6c0-0.33-0.06-0.63-0.19-0.89c-0.13-0.26-0.33-0.47-0.59-0.64c-0.23-0.14-0.51-0.25-0.82-0.31
			c-0.31-0.06-0.7-0.09-1.16-0.09h-1.64v4.34h1.46c0.47,0,0.9-0.04,1.28-0.12c0.38-0.08,0.7-0.24,0.97-0.48
			c0.24-0.22,0.42-0.47,0.53-0.77C261,115.35,261.06,115,261.06,114.6z"/>
		<path d="M265.63,122.87v-11.5h7.8v1.36h-6.14v3.15h5.72v1.36h-5.72v4.27h6.14v1.36H265.63z"/>
	</g>
</g>
<g id="Layer_3">
</g>
</svg>
