<svg id="Icon_feather-instagram" data-name="Icon feather-instagram" xmlns="http://www.w3.org/2000/svg" width="57" height="57" viewBox="0 0 57 57">
  <path id="Path_8" data-name="Path 8" d="M15.75,3h25.5A12.75,12.75,0,0,1,54,15.75v25.5A12.75,12.75,0,0,1,41.25,54H15.75A12.75,12.75,0,0,1,3,41.25V15.75A12.75,12.75,0,0,1,15.75,3Z" transform="translate(0)" fill="none" stroke="#000" stroke-linecap="round" stroke-linejoin="round" stroke-width="6"/>
  <path id="Path_9" data-name="Path 9" d="M32.355,20.639a10.2,10.2,0,1,1-8.594-8.594,10.2,10.2,0,0,1,8.594,8.594Z" transform="translate(6.345 6.254)" fill="none" stroke="#000" stroke-linecap="round" stroke-linejoin="round" stroke-width="6"/>
  <path id="Path_10" data-name="Path 10" d="M26.25,9.75h0" transform="translate(16.275 4.725)" fill="none" stroke="#000" stroke-linecap="round" stroke-linejoin="round" stroke-width="6"/>
</svg>
