<svg xmlns="http://www.w3.org/2000/svg" width="63.742" height="59.925" viewBox="0 0 63.742 59.925">
  <path id="Icon_awesome-snapchat-ghost" data-name="Icon awesome-snapchat-ghost" d="M63.6,48.056c-.649,1.514-3.391,2.625-8.386,3.4a23.353,23.353,0,0,0-.81,2.982,1.442,1.442,0,0,1-1.51,1.1h-.037c-1.17,0-2.391-.538-4.837-.538-3.3,0-4.44.752-7,2.563C38.3,59.489,35.69,61.148,31.8,60.978c-3.94.291-7.224-2.1-9.072-3.412-2.579-1.823-3.713-2.562-7-2.562a47.023,47.023,0,0,0-4.837.588,1.478,1.478,0,0,1-1.546-1.125,23.061,23.061,0,0,0-.812-3c-2.574-.4-8.38-1.412-8.528-4a1.323,1.323,0,0,1,1.105-1.378c8.663-1.426,12.565-10.321,12.727-10.7.009-.022.019-.043.03-.064a2.83,2.83,0,0,0,.307-2.335c-.629-1.481-3.345-2.012-4.488-2.465C6.729,29.354,6.318,28.014,6.493,27.1c.3-1.6,2.7-2.581,4.109-1.924a7.124,7.124,0,0,0,2.932.784,2.541,2.541,0,0,0,1.24-.27c-.254-4.474-.884-10.867.708-14.438A16.962,16.962,0,0,1,31.227,1.089c.118,0,1.138-.011,1.259-.011A16.845,16.845,0,0,1,48.262,11.242c1.591,3.567.965,9.934.709,14.443a2.44,2.44,0,0,0,1.071.266,7.437,7.437,0,0,0,2.748-.779,3.37,3.37,0,0,1,2.55.007h0a2.586,2.586,0,0,1,1.941,2.225c.023,1.213-1.061,2.261-3.222,3.115-.264.1-.584.206-.926.314-1.22.387-3.063.972-3.563,2.15a2.828,2.828,0,0,0,.306,2.334c.011.021.021.043.03.064.162.377,4.06,9.27,12.727,10.7A1.359,1.359,0,0,1,63.6,48.056Z" transform="translate(0 -1.078)"/>
</svg>
