<svg xmlns="http://www.w3.org/2000/svg" width="61.136" height="61.128" viewBox="0 0 61.136 61.128">
  <path id="Icon_awesome-whatsapp" data-name="Icon awesome-whatsapp" d="M50.949,10.958A29.7,29.7,0,0,0,4.213,46.792L0,62.175l15.744-4.133a29.6,29.6,0,0,0,14.192,3.612h.013A29.981,29.981,0,0,0,59.925,31.958a29.812,29.812,0,0,0-8.975-21Zm-21,45.693a24.638,24.638,0,0,1-12.574-3.438l-.9-.535L7.143,55.126l2.488-9.109-.589-.936A24.729,24.729,0,1,1,54.909,31.958,24.957,24.957,0,0,1,29.949,56.65ZM43.486,38.165C42.75,37.79,39.1,36,38.416,35.757s-1.177-.375-1.672.375-1.913,2.408-2.354,2.916-.869.562-1.605.187c-4.361-2.18-7.223-3.892-10.1-8.828-.762-1.311.762-1.217,2.18-4.053a1.375,1.375,0,0,0-.067-1.3c-.187-.375-1.672-4.026-2.287-5.511-.6-1.445-1.217-1.244-1.672-1.271-.428-.027-.923-.027-1.418-.027a2.749,2.749,0,0,0-1.98.923,8.338,8.338,0,0,0-2.595,6.193c0,3.652,2.662,7.183,3.023,7.678s5.23,7.986,12.681,11.209c4.708,2.033,6.554,2.207,8.908,1.859,1.431-.214,4.387-1.792,5-3.531a6.206,6.206,0,0,0,.428-3.531C44.716,38.713,44.221,38.526,43.486,38.165Z" transform="translate(0.711 -1.75)" stroke="#000" stroke-width="1"/>
</svg>
