<svg xmlns="http://www.w3.org/2000/svg" width="182.51" height="55.939" viewBox="0 0 182.51 55.939">
  <path id="Icon_simple-visa" data-name="Icon simple-visa" d="M132.662,14.772a37.956,37.956,0,0,0-13.232-2.289c-14.6,0-24.905,7.361-24.981,17.909-.091,7.757,7.331,12.122,12.935,14.722,5.757,2.662,7.681,4.335,7.665,6.73-.038,3.627-4.6,5.27-8.837,5.27a31.26,31.26,0,0,1-13.924-2.852l-1.817-.844L88.411,65.571c3.544,1.483,9.932,2.753,16.54,2.852,15.521,0,25.665-7.308,25.787-18.548.122-6.183-3.878-10.875-12.327-14.738-5.125-2.51-8.319-4.19-8.319-6.738,0-2.251,2.73-4.654,8.433-4.654a27.073,27.073,0,0,1,11.065,2.076l1.369.616L133.019,14.7l-.357.076Zm37.894-1.293H159.149c-3.551,0-6.205.966-7.764,4.494L129.445,67.662h15.521l3.1-8.137L167,59.54c.464,1.9,1.825,8.122,1.825,8.122H182.51L170.556,13.479Zm-97.1-.456H88.236L79,67.236H64.213L73.46,13.008ZM35.9,42.9l1.536,7.529L51.894,13.479H67.552L44.274,67.586H28.654L15.878,21.761a3.026,3.026,0,0,0-1.369-1.8A62.443,62.443,0,0,0,0,14.582l.19-1.141H24c3.224.122,5.825,1.141,6.715,4.593L35.9,42.924V42.9ZM152.312,48.43l5.894-15.164c-.076.152,1.217-3.133,1.962-5.171l1.011,4.677,3.414,15.643H152.312v.015Z" transform="translate(0 -12.483)"/>
</svg>
