<svg xmlns="http://www.w3.org/2000/svg" width="134.217" height="55.087" viewBox="0 0 134.217 55.087">
  <path id="Icon_awesome-apple-pay" data-name="Icon awesome-apple-pay" d="M24.521,15.856a8.233,8.233,0,0,1-6.605,3.124,9.3,9.3,0,0,1,2.37-6.836,9.858,9.858,0,0,1,6.564-3.376,9.977,9.977,0,0,1-2.328,7.088m2.286,3.607c-3.649-.21-6.773,2.076-8.493,2.076-1.761,0-4.4-1.971-7.3-1.908a10.778,10.778,0,0,0-9.143,5.557C-2.069,31.961.846,41.963,4.663,47.478,6.529,50.2,8.752,53.2,11.687,53.1c2.789-.1,3.879-1.8,7.235-1.8,3.376,0,4.362,1.8,7.3,1.761,3.041-.063,4.949-2.726,6.815-5.452a23.7,23.7,0,0,0,3.041-6.27,9.907,9.907,0,0,1-5.934-9,10.087,10.087,0,0,1,4.8-8.451,10.364,10.364,0,0,0-8.136-4.425M47.86,11.871v40.87h6.354V38.776H63c8.031,0,13.651-5.515,13.651-13.484S71.116,11.871,63.21,11.871H47.86Zm6.354,5.347h7.318c5.515,0,8.661,2.936,8.661,8.094s-3.145,8.136-8.681,8.136h-7.3ZM88.227,53.056a10.47,10.47,0,0,0,9.353-5.221h.126v4.907h5.872V32.4c0-5.893-4.718-9.709-11.974-9.709-6.731,0-11.722,3.858-11.911,9.143h5.725c.482-2.516,2.81-4.173,6-4.173,3.879,0,6.06,1.8,6.06,5.138v2.265l-7.927.482c-7.36.44-11.345,3.46-11.345,8.7C78.225,49.533,82.335,53.056,88.227,53.056Zm1.72-4.844c-3.376,0-5.536-1.636-5.536-4.11,0-2.579,2.076-4.068,6.039-4.3l7.046-.44V41.67c0,3.816-3.25,6.543-7.549,6.543Zm21.494,15.643c6.186,0,9.1-2.37,11.638-9.52L134.214,23.09h-6.459L120.29,47.227h-.126L112.7,23.09h-6.626l10.737,29.756-.587,1.8c-.965,3.062-2.537,4.257-5.347,4.257-.5,0-1.468-.063-1.866-.1v4.907A21.98,21.98,0,0,0,111.441,63.856Z" transform="translate(0.004 -8.768)"/>
</svg>
